<svg width="18" height="16" viewBox="0 0 18 16" fill="none" xmlns="http://www.w3.org/2000/svg">
<path fill-rule="evenodd" clip-rule="evenodd" d="M9.39708 10.3471L7.38625 8.36L7.41 8.33625C8.7875 6.80042 9.76917 5.035 10.3471 3.16667H12.6667V1.58333H7.125V0H5.54167V1.58333H0V3.15875H8.84292C8.3125 4.68667 7.47333 6.13542 6.33333 7.40208C5.59708 6.58667 4.9875 5.69208 4.50458 4.75H2.92125C3.49917 6.04042 4.29083 7.25958 5.28042 8.36L1.25083 12.3342L2.375 13.4583L6.33333 9.5L8.79542 11.9621L9.39708 10.3471ZM13.8541 6.33341H12.2708L8.70825 15.8334H10.2916L11.1783 13.4584H14.9387L15.8333 15.8334H17.4166L13.8541 6.33341ZM13.0623 8.4471L11.7798 11.875H14.3448L13.0623 8.4471Z" fill="#012E7F"/>
</svg>